<svg width="16" height="16" viewBox="0 0 16 16" fill="none" xmlns="http://www.w3.org/2000/svg">
<g clip-path="url(#clip0_27_1419)">
<path fill-rule="evenodd" clip-rule="evenodd" d="M8.00008 2C4.68637 2 2.00008 4.68629 2.00008 8C2.00008 11.3137 4.68637 14 8.00008 14C11.3138 14 14.0001 11.3137 14.0001 8C14.0001 4.68629 11.3138 2 8.00008 2ZM0.666748 8C0.666748 3.94991 3.94999 0.666666 8.00008 0.666666C12.0502 0.666666 15.3334 3.94991 15.3334 8C15.3334 12.0501 12.0502 15.3333 8.00008 15.3333C3.94999 15.3333 0.666748 12.0501 0.666748 8Z" fill="#F7F7F2"/>
<path fill-rule="evenodd" clip-rule="evenodd" d="M7.52851 4.86193C7.78886 4.60158 8.21097 4.60158 8.47132 4.86193L11.138 7.5286C11.3983 7.78895 11.3983 8.21106 11.138 8.47141L8.47132 11.1381C8.21097 11.3984 7.78886 11.3984 7.52851 11.1381C7.26816 10.8777 7.26816 10.4556 7.52851 10.1953L9.72378 8L7.52851 5.80474C7.26816 5.54439 7.26816 5.12228 7.52851 4.86193Z" fill="#F7F7F2"/>
<path fill-rule="evenodd" clip-rule="evenodd" d="M4.66675 8C4.66675 7.63181 4.96522 7.33333 5.33341 7.33333H10.6667C11.0349 7.33333 11.3334 7.63181 11.3334 8C11.3334 8.36819 11.0349 8.66667 10.6667 8.66667H5.33341C4.96522 8.66667 4.66675 8.36819 4.66675 8Z" fill="#F7F7F2"/>
</g>
<defs>
<clipPath id="clip0_27_1419">
<rect width="16" height="16" fill="white"/>
</clipPath>
</defs>
</svg>
