<svg width="63" height="36" viewBox="0 0 63 36" fill="none" xmlns="http://www.w3.org/2000/svg">
<rect width="36" height="36" rx="4" fill="#899878"/>
<path d="M7.328 24V12.8H12.176C13.1787 12.8 14.0427 12.9653 14.768 13.296C15.4933 13.616 16.0533 14.08 16.448 14.688C16.8427 15.296 17.04 16.0213 17.04 16.864C17.04 17.696 16.8427 18.416 16.448 19.024C16.0533 19.632 15.4933 20.1013 14.768 20.432C14.0427 20.752 13.1787 20.912 12.176 20.912H8.768L9.92 19.744V24H7.328ZM9.92 20.032L8.768 18.8H12.032C12.832 18.8 13.4293 18.6293 13.824 18.288C14.2187 17.9467 14.416 17.472 14.416 16.864C14.416 16.2453 14.2187 15.7653 13.824 15.424C13.4293 15.0827 12.832 14.912 12.032 14.912H8.768L9.92 13.68V20.032ZM18.8905 24V12.8H23.7385C24.7412 12.8 25.6052 12.9653 26.3305 13.296C27.0558 13.616 27.6158 14.08 28.0105 14.688C28.4052 15.296 28.6025 16.0213 28.6025 16.864C28.6025 17.696 28.4052 18.416 28.0105 19.024C27.6158 19.6213 27.0558 20.08 26.3305 20.4C25.6052 20.72 24.7412 20.88 23.7385 20.88H20.3305L21.4825 19.744V24H18.8905ZM26.0105 24L23.2105 19.936H25.9785L28.8105 24H26.0105ZM21.4825 20.032L20.3305 18.816H23.5945C24.3945 18.816 24.9918 18.6453 25.3865 18.304C25.7812 17.952 25.9785 17.472 25.9785 16.864C25.9785 16.2453 25.7812 15.7653 25.3865 15.424C24.9918 15.0827 24.3945 14.912 23.5945 14.912H20.3305L21.4825 13.68V20.032Z" fill="white"/>
<path d="M44.912 24L39.984 12.8H41.712L46.24 23.136H45.248L49.808 12.8H51.408L46.496 24H44.912ZM54.2443 21.296L54.1643 19.344L60.5163 12.8H62.3403L57.4283 17.984L56.5323 18.976L54.2443 21.296ZM52.8363 24V12.8H54.4363V24H52.8363ZM60.7723 24L56.1803 18.656L57.2523 17.472L62.6443 24H60.7723Z" fill="white"/>
</svg>
